<svg xmlns="http://www.w3.org/2000/svg" version="1.1" xmlns:xlink="http://www.w3.org/1999/xlink" xmlns:svgjs="http://svgjs.dev/svgjs" width="1440" height="560" preserveAspectRatio="none" viewBox="0 0 1440 560"><g mask="url(&quot;#SvgjsMask1006&quot;)" fill="none"><rect width="1440" height="560" x="0" y="0" fill="rgba(29, 31, 32, 1)"></rect><path d="M-67.73 362.25L-67.73 362.25" stroke="rgba(87, 15, 85, 1)" stroke-width="1.5"></path><path d="M-67.73 362.25L60.08 393.02" stroke="rgba(87, 15, 85, 1)" stroke-width="1.5"></path><path d="M-67.73 362.25L-76.06 556.24" stroke="rgba(87, 15, 85, 1)" stroke-width="1.5"></path><path d="M-76.06 556.24L-76.06 556.24" stroke="rgba(87, 15, 85, 1)" stroke-width="1.5"></path><path d="M-76.06 556.24L65.5 562.22" stroke="rgba(87, 15, 85, 1)" stroke-width="1.5"></path><path d="M-76.06 556.24L-39.92 699.45" stroke="rgba(87, 15, 85, 1)" stroke-width="1.5"></path><path d="M-39.92 699.45L-39.92 699.45" stroke="rgba(87, 15, 85, 1)" stroke-width="1.5"></path><path d="M-39.92 699.45L91.93 692.53" stroke="rgba(87, 15, 85, 1)" stroke-width="1.5"></path><path d="M-39.92 699.45L65.5 562.22" stroke="rgba(87, 15, 85, 1)" stroke-width="1.5"></path><path d="M60.08 393.02L60.08 393.02" stroke="rgba(87, 15, 85, 1)" stroke-width="1.5"></path><path d="M60.08 393.02L189.65 370.87" stroke="rgba(87, 15, 85, 1)" stroke-width="1.5"></path><path d="M65.5 562.22L65.5 562.22" stroke="rgba(87, 15, 85, 1)" stroke-width="1.5"></path><path d="M65.5 562.22L91.93 692.53" stroke="rgba(87, 15, 85, 1)" stroke-width="1.5"></path><path d="M91.93 692.53L91.93 692.53" stroke="rgba(87, 15, 85, 1)" stroke-width="1.5"></path><path d="M91.93 692.53L199.8 656.71" stroke="rgba(87, 15, 85, 1)" stroke-width="1.5"></path><path d="M91.93 692.53L-76.06 556.24" stroke="rgba(87, 15, 85, 1)" stroke-width="1.5"></path><path d="M91.93 692.53L60.08 393.02" stroke="rgba(87, 15, 85, 1)" stroke-width="1.5"></path><path d="M189.65 370.87L189.65 370.87" stroke="rgba(87, 15, 85, 1)" stroke-width="1.5"></path><path d="M189.65 370.87L65.5 562.22" stroke="rgba(87, 15, 85, 1)" stroke-width="1.5"></path><path d="M189.65 370.87L371.39 548.01" stroke="rgba(87, 15, 85, 1)" stroke-width="1.5"></path><path d="M189.65 370.87L-67.73 362.25" stroke="rgba(87, 15, 85, 1)" stroke-width="1.5"></path><path d="M189.65 370.87L199.8 656.71" stroke="rgba(87, 15, 85, 1)" stroke-width="1.5"></path><path d="M199.8 656.71L199.8 656.71" stroke="rgba(87, 15, 85, 1)" stroke-width="1.5"></path><path d="M371.39 548.01L371.39 548.01" stroke="rgba(87, 15, 85, 1)" stroke-width="1.5"></path><path d="M371.39 548.01L500.04 552.11" stroke="rgba(87, 15, 85, 1)" stroke-width="1.5"></path><path d="M371.39 548.01L411.57 709.38" stroke="rgba(87, 15, 85, 1)" stroke-width="1.5"></path><path d="M371.39 548.01L496.51 391.7" stroke="rgba(87, 15, 85, 1)" stroke-width="1.5"></path><path d="M371.39 548.01L199.8 656.71" stroke="rgba(87, 15, 85, 1)" stroke-width="1.5"></path><path d="M411.57 709.38L411.57 709.38" stroke="rgba(87, 15, 85, 1)" stroke-width="1.5"></path><path d="M411.57 709.38L500.04 552.11" stroke="rgba(87, 15, 85, 1)" stroke-width="1.5"></path><path d="M411.57 709.38L199.8 656.71" stroke="rgba(87, 15, 85, 1)" stroke-width="1.5"></path><path d="M411.57 709.38L91.93 692.53" stroke="rgba(87, 15, 85, 1)" stroke-width="1.5"></path><path d="M411.57 709.38L496.51 391.7" stroke="rgba(87, 15, 85, 1)" stroke-width="1.5"></path><path d="M411.57 709.38L664.24 497.21" stroke="rgba(87, 15, 85, 1)" stroke-width="1.5"></path><path d="M558.82 260.97L558.82 260.97" stroke="rgba(87, 15, 85, 1)" stroke-width="1.5"></path><path d="M558.82 260.97L496.51 391.7" stroke="rgba(87, 15, 85, 1)" stroke-width="1.5"></path><path d="M558.82 260.97L700.04 379.44" stroke="rgba(87, 15, 85, 1)" stroke-width="1.5"></path><path d="M558.82 260.97L799.8 196.39" stroke="rgba(87, 15, 85, 1)" stroke-width="1.5"></path><path d="M496.51 391.7L496.51 391.7" stroke="rgba(87, 15, 85, 1)" stroke-width="1.5"></path><path d="M496.51 391.7L500.04 552.11" stroke="rgba(87, 15, 85, 1)" stroke-width="1.5"></path><path d="M496.51 391.7L664.24 497.21" stroke="rgba(87, 15, 85, 1)" stroke-width="1.5"></path><path d="M500.04 552.11L500.04 552.11" stroke="rgba(87, 15, 85, 1)" stroke-width="1.5"></path><path d="M500.04 552.11L664.24 497.21" stroke="rgba(87, 15, 85, 1)" stroke-width="1.5"></path><path d="M500.04 552.11L700.04 379.44" stroke="rgba(87, 15, 85, 1)" stroke-width="1.5"></path><path d="M700.04 379.44L700.04 379.44" stroke="rgba(87, 15, 85, 1)" stroke-width="1.5"></path><path d="M700.04 379.44L664.24 497.21" stroke="rgba(87, 15, 85, 1)" stroke-width="1.5"></path><path d="M700.04 379.44L836.22 399.81" stroke="rgba(87, 15, 85, 1)" stroke-width="1.5"></path><path d="M700.04 379.44L496.51 391.7" stroke="rgba(87, 15, 85, 1)" stroke-width="1.5"></path><path d="M700.04 379.44L799.8 196.39" stroke="rgba(87, 15, 85, 1)" stroke-width="1.5"></path><path d="M664.24 497.21L664.24 497.21" stroke="rgba(87, 15, 85, 1)" stroke-width="1.5"></path><path d="M664.24 497.21L788.11 649.12" stroke="rgba(87, 15, 85, 1)" stroke-width="1.5"></path><path d="M664.24 497.21L836.22 399.81" stroke="rgba(87, 15, 85, 1)" stroke-width="1.5"></path><path d="M799.8 196.39L799.8 196.39" stroke="rgba(87, 15, 85, 1)" stroke-width="1.5"></path><path d="M799.8 196.39L958.84 104.94" stroke="rgba(87, 15, 85, 1)" stroke-width="1.5"></path><path d="M799.8 196.39L995.65 258.38" stroke="rgba(87, 15, 85, 1)" stroke-width="1.5"></path><path d="M799.8 196.39L836.22 399.81" stroke="rgba(87, 15, 85, 1)" stroke-width="1.5"></path><path d="M799.8 196.39L977.9 391.84" stroke="rgba(87, 15, 85, 1)" stroke-width="1.5"></path><path d="M836.22 399.81L836.22 399.81" stroke="rgba(87, 15, 85, 1)" stroke-width="1.5"></path><path d="M836.22 399.81L977.9 391.84" stroke="rgba(87, 15, 85, 1)" stroke-width="1.5"></path><path d="M836.22 399.81L974.6 487.74" stroke="rgba(87, 15, 85, 1)" stroke-width="1.5"></path><path d="M836.22 399.81L995.65 258.38" stroke="rgba(87, 15, 85, 1)" stroke-width="1.5"></path><path d="M788.11 649.12L788.11 649.12" stroke="rgba(87, 15, 85, 1)" stroke-width="1.5"></path><path d="M788.11 649.12L955.23 643.64" stroke="rgba(87, 15, 85, 1)" stroke-width="1.5"></path><path d="M788.11 649.12L974.6 487.74" stroke="rgba(87, 15, 85, 1)" stroke-width="1.5"></path><path d="M964.89 -41.63L964.89 -41.63" stroke="rgba(87, 15, 85, 1)" stroke-width="1.5"></path><path d="M964.89 -41.63L958.84 104.94" stroke="rgba(87, 15, 85, 1)" stroke-width="1.5"></path><path d="M964.89 -41.63L1139.28 -55.85" stroke="rgba(87, 15, 85, 1)" stroke-width="1.5"></path><path d="M964.89 -41.63L1091.9 213.47" stroke="rgba(87, 15, 85, 1)" stroke-width="1.5"></path><path d="M958.84 104.94L958.84 104.94" stroke="rgba(87, 15, 85, 1)" stroke-width="1.5"></path><path d="M958.84 104.94L995.65 258.38" stroke="rgba(87, 15, 85, 1)" stroke-width="1.5"></path><path d="M995.65 258.38L995.65 258.38" stroke="rgba(87, 15, 85, 1)" stroke-width="1.5"></path><path d="M995.65 258.38L1091.9 213.47" stroke="rgba(87, 15, 85, 1)" stroke-width="1.5"></path><path d="M995.65 258.38L977.9 391.84" stroke="rgba(87, 15, 85, 1)" stroke-width="1.5"></path><path d="M977.9 391.84L977.9 391.84" stroke="rgba(87, 15, 85, 1)" stroke-width="1.5"></path><path d="M977.9 391.84L974.6 487.74" stroke="rgba(87, 15, 85, 1)" stroke-width="1.5"></path><path d="M977.9 391.84L1135.52 402.3" stroke="rgba(87, 15, 85, 1)" stroke-width="1.5"></path><path d="M977.9 391.84L1091.9 213.47" stroke="rgba(87, 15, 85, 1)" stroke-width="1.5"></path><path d="M974.6 487.74L974.6 487.74" stroke="rgba(87, 15, 85, 1)" stroke-width="1.5"></path><path d="M974.6 487.74L955.23 643.64" stroke="rgba(87, 15, 85, 1)" stroke-width="1.5"></path><path d="M974.6 487.74L1140.38 538.22" stroke="rgba(87, 15, 85, 1)" stroke-width="1.5"></path><path d="M974.6 487.74L1135.52 402.3" stroke="rgba(87, 15, 85, 1)" stroke-width="1.5"></path><path d="M955.23 643.64L955.23 643.64" stroke="rgba(87, 15, 85, 1)" stroke-width="1.5"></path><path d="M955.23 643.64L1136.3 651.39" stroke="rgba(87, 15, 85, 1)" stroke-width="1.5"></path><path d="M1139.28 -55.85L1139.28 -55.85" stroke="rgba(87, 15, 85, 1)" stroke-width="1.5"></path><path d="M1139.28 -55.85L1250.91 -104.16" stroke="rgba(87, 15, 85, 1)" stroke-width="1.5"></path><path d="M1139.28 -55.85L1241.23 98.86" stroke="rgba(87, 15, 85, 1)" stroke-width="1.5"></path><path d="M1139.28 -55.85L958.84 104.94" stroke="rgba(87, 15, 85, 1)" stroke-width="1.5"></path><path d="M1139.28 -55.85L1091.9 213.47" stroke="rgba(87, 15, 85, 1)" stroke-width="1.5"></path><path d="M1091.9 213.47L1091.9 213.47" stroke="rgba(87, 15, 85, 1)" stroke-width="1.5"></path><path d="M1091.9 213.47L1258.12 200.88" stroke="rgba(87, 15, 85, 1)" stroke-width="1.5"></path><path d="M1135.52 402.3L1135.52 402.3" stroke="rgba(87, 15, 85, 1)" stroke-width="1.5"></path><path d="M1135.52 402.3L1241.17 346.3" stroke="rgba(87, 15, 85, 1)" stroke-width="1.5"></path><path d="M1135.52 402.3L1140.38 538.22" stroke="rgba(87, 15, 85, 1)" stroke-width="1.5"></path><path d="M1140.38 538.22L1140.38 538.22" stroke="rgba(87, 15, 85, 1)" stroke-width="1.5"></path><path d="M1140.38 538.22L1136.3 651.39" stroke="rgba(87, 15, 85, 1)" stroke-width="1.5"></path><path d="M1140.38 538.22L1265.68 560.62" stroke="rgba(87, 15, 85, 1)" stroke-width="1.5"></path><path d="M1140.38 538.22L1239.3 649.9" stroke="rgba(87, 15, 85, 1)" stroke-width="1.5"></path><path d="M1140.38 538.22L955.23 643.64" stroke="rgba(87, 15, 85, 1)" stroke-width="1.5"></path><path d="M1136.3 651.39L1136.3 651.39" stroke="rgba(87, 15, 85, 1)" stroke-width="1.5"></path><path d="M1136.3 651.39L1239.3 649.9" stroke="rgba(87, 15, 85, 1)" stroke-width="1.5"></path><path d="M1136.3 651.39L1265.68 560.62" stroke="rgba(87, 15, 85, 1)" stroke-width="1.5"></path><path d="M1250.91 -104.16L1250.91 -104.16" stroke="rgba(87, 15, 85, 1)" stroke-width="1.5"></path><path d="M1250.91 -104.16L1241.23 98.86" stroke="rgba(87, 15, 85, 1)" stroke-width="1.5"></path><path d="M1250.91 -104.16L1441.54 100.28" stroke="rgba(87, 15, 85, 1)" stroke-width="1.5"></path><path d="M1250.91 -104.16L964.89 -41.63" stroke="rgba(87, 15, 85, 1)" stroke-width="1.5"></path><path d="M1250.91 -104.16L1258.12 200.88" stroke="rgba(87, 15, 85, 1)" stroke-width="1.5"></path><path d="M1250.91 -104.16L1581.42 -55.81" stroke="rgba(87, 15, 85, 1)" stroke-width="1.5"></path><path d="M1241.23 98.86L1241.23 98.86" stroke="rgba(87, 15, 85, 1)" stroke-width="1.5"></path><path d="M1241.23 98.86L1258.12 200.88" stroke="rgba(87, 15, 85, 1)" stroke-width="1.5"></path><path d="M1241.23 98.86L1091.9 213.47" stroke="rgba(87, 15, 85, 1)" stroke-width="1.5"></path><path d="M1258.12 200.88L1258.12 200.88" stroke="rgba(87, 15, 85, 1)" stroke-width="1.5"></path><path d="M1258.12 200.88L1395.19 235.29" stroke="rgba(87, 15, 85, 1)" stroke-width="1.5"></path><path d="M1241.17 346.3L1241.17 346.3" stroke="rgba(87, 15, 85, 1)" stroke-width="1.5"></path><path d="M1241.17 346.3L1258.12 200.88" stroke="rgba(87, 15, 85, 1)" stroke-width="1.5"></path><path d="M1241.17 346.3L1395.19 235.29" stroke="rgba(87, 15, 85, 1)" stroke-width="1.5"></path><path d="M1241.17 346.3L1091.9 213.47" stroke="rgba(87, 15, 85, 1)" stroke-width="1.5"></path><path d="M1241.17 346.3L1265.68 560.62" stroke="rgba(87, 15, 85, 1)" stroke-width="1.5"></path><path d="M1265.68 560.62L1265.68 560.62" stroke="rgba(87, 15, 85, 1)" stroke-width="1.5"></path><path d="M1265.68 560.62L1239.3 649.9" stroke="rgba(87, 15, 85, 1)" stroke-width="1.5"></path><path d="M1239.3 649.9L1239.3 649.9" stroke="rgba(87, 15, 85, 1)" stroke-width="1.5"></path><path d="M1441.54 100.28L1441.54 100.28" stroke="rgba(87, 15, 85, 1)" stroke-width="1.5"></path><path d="M1441.54 100.28L1395.19 235.29" stroke="rgba(87, 15, 85, 1)" stroke-width="1.5"></path><path d="M1441.54 100.28L1241.23 98.86" stroke="rgba(87, 15, 85, 1)" stroke-width="1.5"></path><path d="M1441.54 100.28L1258.12 200.88" stroke="rgba(87, 15, 85, 1)" stroke-width="1.5"></path><path d="M1395.19 235.29L1395.19 235.29" stroke="rgba(87, 15, 85, 1)" stroke-width="1.5"></path><path d="M1411.13 562.19L1411.13 562.19" stroke="rgba(87, 15, 85, 1)" stroke-width="1.5"></path><path d="M1411.13 562.19L1428.58 659.78" stroke="rgba(87, 15, 85, 1)" stroke-width="1.5"></path><path d="M1411.13 562.19L1265.68 560.62" stroke="rgba(87, 15, 85, 1)" stroke-width="1.5"></path><path d="M1411.13 562.19L1581.83 532.64" stroke="rgba(87, 15, 85, 1)" stroke-width="1.5"></path><path d="M1411.13 562.19L1239.3 649.9" stroke="rgba(87, 15, 85, 1)" stroke-width="1.5"></path><path d="M1411.13 562.19L1573.4 695.08" stroke="rgba(87, 15, 85, 1)" stroke-width="1.5"></path><path d="M1428.58 659.78L1428.58 659.78" stroke="rgba(87, 15, 85, 1)" stroke-width="1.5"></path><path d="M1428.58 659.78L1573.4 695.08" stroke="rgba(87, 15, 85, 1)" stroke-width="1.5"></path><path d="M1428.58 659.78L1239.3 649.9" stroke="rgba(87, 15, 85, 1)" stroke-width="1.5"></path><path d="M1428.58 659.78L1265.68 560.62" stroke="rgba(87, 15, 85, 1)" stroke-width="1.5"></path><path d="M1428.58 659.78L1581.83 532.64" stroke="rgba(87, 15, 85, 1)" stroke-width="1.5"></path><path d="M1581.42 -55.81L1581.42 -55.81" stroke="rgba(87, 15, 85, 1)" stroke-width="1.5"></path><path d="M1581.42 -55.81L1441.54 100.28" stroke="rgba(87, 15, 85, 1)" stroke-width="1.5"></path><path d="M1581.42 -55.81L1596.77 247.66" stroke="rgba(87, 15, 85, 1)" stroke-width="1.5"></path><path d="M1596.77 247.66L1596.77 247.66" stroke="rgba(87, 15, 85, 1)" stroke-width="1.5"></path><path d="M1596.77 247.66L1395.19 235.29" stroke="rgba(87, 15, 85, 1)" stroke-width="1.5"></path><path d="M1581.83 532.64L1581.83 532.64" stroke="rgba(87, 15, 85, 1)" stroke-width="1.5"></path><path d="M1581.83 532.64L1573.4 695.08" stroke="rgba(87, 15, 85, 1)" stroke-width="1.5"></path><path d="M1581.83 532.64L1596.77 247.66" stroke="rgba(87, 15, 85, 1)" stroke-width="1.5"></path><path d="M1573.4 695.08L1573.4 695.08" stroke="rgba(87, 15, 85, 1)" stroke-width="1.5"></path><circle r="5" cx="-67.73" cy="362.25" fill="rgba(87, 15, 85, 1)"></circle><circle r="5" cx="-76.06" cy="556.24" fill="rgba(87, 15, 85, 1)"></circle><circle r="5" cx="-39.92" cy="699.45" fill="rgba(87, 15, 85, 1)"></circle><circle r="5" cx="60.08" cy="393.02" fill="rgba(87, 15, 85, 1)"></circle><circle r="5" cx="65.5" cy="562.22" fill="rgba(87, 15, 85, 1)"></circle><circle r="5" cx="91.93" cy="692.53" fill="rgba(87, 15, 85, 1)"></circle><circle r="5" cx="189.65" cy="370.87" fill="rgba(87, 15, 85, 1)"></circle><circle r="5" cx="199.8" cy="656.71" fill="rgba(87, 15, 85, 1)"></circle><circle r="5" cx="371.39" cy="548.01" fill="rgba(87, 15, 85, 1)"></circle><circle r="5" cx="411.57" cy="709.38" fill="rgba(87, 15, 85, 1)"></circle><circle r="5" cx="558.82" cy="260.97" fill="rgba(87, 15, 85, 1)"></circle><circle r="5" cx="496.51" cy="391.7" fill="rgba(87, 15, 85, 1)"></circle><circle r="5" cx="500.04" cy="552.11" fill="rgba(87, 15, 85, 1)"></circle><circle r="5" cx="700.04" cy="379.44" fill="rgba(87, 15, 85, 1)"></circle><circle r="5" cx="664.24" cy="497.21" fill="rgba(87, 15, 85, 1)"></circle><circle r="5" cx="799.8" cy="196.39" fill="rgba(87, 15, 85, 1)"></circle><circle r="5" cx="836.22" cy="399.81" fill="rgba(87, 15, 85, 1)"></circle><circle r="5" cx="788.11" cy="649.12" fill="rgba(87, 15, 85, 1)"></circle><circle r="5" cx="964.89" cy="-41.63" fill="rgba(87, 15, 85, 1)"></circle><circle r="5" cx="958.84" cy="104.94" fill="rgba(87, 15, 85, 1)"></circle><circle r="5" cx="995.65" cy="258.38" fill="rgba(87, 15, 85, 1)"></circle><circle r="5" cx="977.9" cy="391.84" fill="rgba(87, 15, 85, 1)"></circle><circle r="5" cx="974.6" cy="487.74" fill="rgba(87, 15, 85, 1)"></circle><circle r="5" cx="955.23" cy="643.64" fill="rgba(87, 15, 85, 1)"></circle><circle r="5" cx="1139.28" cy="-55.85" fill="rgba(87, 15, 85, 1)"></circle><circle r="5" cx="1091.9" cy="213.47" fill="rgba(87, 15, 85, 1)"></circle><circle r="5" cx="1135.52" cy="402.3" fill="rgba(87, 15, 85, 1)"></circle><circle r="5" cx="1140.38" cy="538.22" fill="rgba(87, 15, 85, 1)"></circle><circle r="5" cx="1136.3" cy="651.39" fill="rgba(87, 15, 85, 1)"></circle><circle r="5" cx="1250.91" cy="-104.16" fill="rgba(87, 15, 85, 1)"></circle><circle r="5" cx="1241.23" cy="98.86" fill="rgba(87, 15, 85, 1)"></circle><circle r="5" cx="1258.12" cy="200.88" fill="rgba(87, 15, 85, 1)"></circle><circle r="5" cx="1241.17" cy="346.3" fill="rgba(87, 15, 85, 1)"></circle><circle r="5" cx="1265.68" cy="560.62" fill="rgba(87, 15, 85, 1)"></circle><circle r="5" cx="1239.3" cy="649.9" fill="rgba(87, 15, 85, 1)"></circle><circle r="5" cx="1441.54" cy="100.28" fill="rgba(87, 15, 85, 1)"></circle><circle r="5" cx="1395.19" cy="235.29" fill="rgba(87, 15, 85, 1)"></circle><circle r="5" cx="1411.13" cy="562.19" fill="rgba(87, 15, 85, 1)"></circle><circle r="5" cx="1428.58" cy="659.78" fill="rgba(87, 15, 85, 1)"></circle><circle r="5" cx="1581.42" cy="-55.81" fill="rgba(87, 15, 85, 1)"></circle><circle r="5" cx="1596.77" cy="247.66" fill="rgba(87, 15, 85, 1)"></circle><circle r="5" cx="1581.83" cy="532.64" fill="rgba(87, 15, 85, 1)"></circle><circle r="5" cx="1573.4" cy="695.08" fill="rgba(87, 15, 85, 1)"></circle><path d="M107.99 699.05L107.99 699.05" stroke="hsl(290.29999999999995, 81.7%, 44.6%)" stroke-width="1.5"></path><path d="M107.99 699.05L214.52 653.57" stroke="hsl(290.29999999999995, 81.7%, 44.6%)" stroke-width="1.5"></path><path d="M107.99 699.05L103.29 490.34" stroke="hsl(290.29999999999995, 81.7%, 44.6%)" stroke-width="1.5"></path><path d="M107.99 699.05L-95 648.45" stroke="hsl(290.29999999999995, 81.7%, 44.6%)" stroke-width="1.5"></path><path d="M107.99 699.05L258.69 510.68" stroke="hsl(290.29999999999995, 81.7%, 44.6%)" stroke-width="1.5"></path><path d="M107.99 699.05L-64.23 505.26" stroke="hsl(290.29999999999995, 81.7%, 44.6%)" stroke-width="1.5"></path><path d="M258.69 510.68L258.69 510.68" stroke="hsl(290.29999999999995, 81.7%, 44.6%)" stroke-width="1.5"></path><path d="M258.69 510.68L392.79 493.65" stroke="hsl(290.29999999999995, 81.7%, 44.6%)" stroke-width="1.5"></path><path d="M258.69 510.68L214.52 653.57" stroke="hsl(290.29999999999995, 81.7%, 44.6%)" stroke-width="1.5"></path><path d="M392.79 493.65L392.79 493.65" stroke="hsl(290.29999999999995, 81.7%, 44.6%)" stroke-width="1.5"></path><path d="M392.79 493.65L488.33 552.34" stroke="hsl(290.29999999999995, 81.7%, 44.6%)" stroke-width="1.5"></path><path d="M392.79 493.65L380.07 673.25" stroke="hsl(290.29999999999995, 81.7%, 44.6%)" stroke-width="1.5"></path><path d="M392.79 493.65L214.52 653.57" stroke="hsl(290.29999999999995, 81.7%, 44.6%)" stroke-width="1.5"></path><path d="M392.79 493.65L500.88 710.51" stroke="hsl(290.29999999999995, 81.7%, 44.6%)" stroke-width="1.5"></path><path d="M1270.29 249.82L1270.29 249.82" stroke="hsl(290.29999999999995, 81.7%, 44.6%)" stroke-width="1.5"></path><path d="M1270.29 249.82L1409.31 349.59" stroke="hsl(290.29999999999995, 81.7%, 44.6%)" stroke-width="1.5"></path><path d="M1270.29 249.82L1104.95 204.68" stroke="hsl(290.29999999999995, 81.7%, 44.6%)" stroke-width="1.5"></path><path d="M1270.29 249.82L1258.1 75.59" stroke="hsl(290.29999999999995, 81.7%, 44.6%)" stroke-width="1.5"></path><path d="M1270.29 249.82L1133.39 366.83" stroke="hsl(290.29999999999995, 81.7%, 44.6%)" stroke-width="1.5"></path><path d="M1270.29 249.82L1459.31 258.58" stroke="hsl(290.29999999999995, 81.7%, 44.6%)" stroke-width="1.5"></path><path d="M1430.4 -96.58L1430.4 -96.58" stroke="hsl(290.29999999999995, 81.7%, 44.6%)" stroke-width="1.5"></path><path d="M1430.4 -96.58L1431.1 42.78" stroke="hsl(290.29999999999995, 81.7%, 44.6%)" stroke-width="1.5"></path><path d="M1430.4 -96.58L1551.67 89.9" stroke="hsl(290.29999999999995, 81.7%, 44.6%)" stroke-width="1.5"></path><path d="M1430.4 -96.58L1258.1 75.59" stroke="hsl(290.29999999999995, 81.7%, 44.6%)" stroke-width="1.5"></path><path d="M-64.23 505.26L-64.23 505.26" stroke="hsl(290.29999999999995, 81.7%, 44.6%)" stroke-width="1.5"></path><path d="M-64.23 505.26L-95 648.45" stroke="hsl(290.29999999999995, 81.7%, 44.6%)" stroke-width="1.5"></path><path d="M-64.23 505.26L103.29 490.34" stroke="hsl(290.29999999999995, 81.7%, 44.6%)" stroke-width="1.5"></path><path d="M-95 648.45L-95 648.45" stroke="hsl(290.29999999999995, 81.7%, 44.6%)" stroke-width="1.5"></path><path d="M-95 648.45L103.29 490.34" stroke="hsl(290.29999999999995, 81.7%, 44.6%)" stroke-width="1.5"></path><path d="M-95 648.45L214.52 653.57" stroke="hsl(290.29999999999995, 81.7%, 44.6%)" stroke-width="1.5"></path><path d="M103.29 490.34L103.29 490.34" stroke="hsl(290.29999999999995, 81.7%, 44.6%)" stroke-width="1.5"></path><path d="M103.29 490.34L258.69 510.68" stroke="hsl(290.29999999999995, 81.7%, 44.6%)" stroke-width="1.5"></path><path d="M103.29 490.34L214.52 653.57" stroke="hsl(290.29999999999995, 81.7%, 44.6%)" stroke-width="1.5"></path><path d="M214.52 653.57L214.52 653.57" stroke="hsl(290.29999999999995, 81.7%, 44.6%)" stroke-width="1.5"></path><path d="M214.52 653.57L380.07 673.25" stroke="hsl(290.29999999999995, 81.7%, 44.6%)" stroke-width="1.5"></path><path d="M380.07 673.25L380.07 673.25" stroke="hsl(290.29999999999995, 81.7%, 44.6%)" stroke-width="1.5"></path><path d="M380.07 673.25L500.88 710.51" stroke="hsl(290.29999999999995, 81.7%, 44.6%)" stroke-width="1.5"></path><path d="M380.07 673.25L488.33 552.34" stroke="hsl(290.29999999999995, 81.7%, 44.6%)" stroke-width="1.5"></path><path d="M380.07 673.25L258.69 510.68" stroke="hsl(290.29999999999995, 81.7%, 44.6%)" stroke-width="1.5"></path><path d="M488.33 552.34L488.33 552.34" stroke="hsl(290.29999999999995, 81.7%, 44.6%)" stroke-width="1.5"></path><path d="M488.33 552.34L500.88 710.51" stroke="hsl(290.29999999999995, 81.7%, 44.6%)" stroke-width="1.5"></path><path d="M488.33 552.34L691.84 538.27" stroke="hsl(290.29999999999995, 81.7%, 44.6%)" stroke-width="1.5"></path><path d="M488.33 552.34L672.73 680.34" stroke="hsl(290.29999999999995, 81.7%, 44.6%)" stroke-width="1.5"></path><path d="M488.33 552.34L258.69 510.68" stroke="hsl(290.29999999999995, 81.7%, 44.6%)" stroke-width="1.5"></path><path d="M500.88 710.51L500.88 710.51" stroke="hsl(290.29999999999995, 81.7%, 44.6%)" stroke-width="1.5"></path><path d="M500.88 710.51L672.73 680.34" stroke="hsl(290.29999999999995, 81.7%, 44.6%)" stroke-width="1.5"></path><path d="M500.88 710.51L691.84 538.27" stroke="hsl(290.29999999999995, 81.7%, 44.6%)" stroke-width="1.5"></path><path d="M500.88 710.51L214.52 653.57" stroke="hsl(290.29999999999995, 81.7%, 44.6%)" stroke-width="1.5"></path><path d="M691.84 538.27L691.84 538.27" stroke="hsl(290.29999999999995, 81.7%, 44.6%)" stroke-width="1.5"></path><path d="M691.84 538.27L826.72 498.67" stroke="hsl(290.29999999999995, 81.7%, 44.6%)" stroke-width="1.5"></path><path d="M691.84 538.27L672.73 680.34" stroke="hsl(290.29999999999995, 81.7%, 44.6%)" stroke-width="1.5"></path><path d="M672.73 680.34L672.73 680.34" stroke="hsl(290.29999999999995, 81.7%, 44.6%)" stroke-width="1.5"></path><path d="M672.73 680.34L838.04 701.2" stroke="hsl(290.29999999999995, 81.7%, 44.6%)" stroke-width="1.5"></path><path d="M672.73 680.34L826.72 498.67" stroke="hsl(290.29999999999995, 81.7%, 44.6%)" stroke-width="1.5"></path><path d="M821.49 337.59L821.49 337.59" stroke="hsl(290.29999999999995, 81.7%, 44.6%)" stroke-width="1.5"></path><path d="M821.49 337.59L826.72 498.67" stroke="hsl(290.29999999999995, 81.7%, 44.6%)" stroke-width="1.5"></path><path d="M821.49 337.59L691.84 538.27" stroke="hsl(290.29999999999995, 81.7%, 44.6%)" stroke-width="1.5"></path><path d="M821.49 337.59L999.95 504.36" stroke="hsl(290.29999999999995, 81.7%, 44.6%)" stroke-width="1.5"></path><path d="M826.72 498.67L826.72 498.67" stroke="hsl(290.29999999999995, 81.7%, 44.6%)" stroke-width="1.5"></path><path d="M838.04 701.2L838.04 701.2" stroke="hsl(290.29999999999995, 81.7%, 44.6%)" stroke-width="1.5"></path><path d="M838.04 701.2L958.25 709.01" stroke="hsl(290.29999999999995, 81.7%, 44.6%)" stroke-width="1.5"></path><path d="M838.04 701.2L826.72 498.67" stroke="hsl(290.29999999999995, 81.7%, 44.6%)" stroke-width="1.5"></path><path d="M838.04 701.2L691.84 538.27" stroke="hsl(290.29999999999995, 81.7%, 44.6%)" stroke-width="1.5"></path><path d="M838.04 701.2L999.95 504.36" stroke="hsl(290.29999999999995, 81.7%, 44.6%)" stroke-width="1.5"></path><path d="M999.95 504.36L999.95 504.36" stroke="hsl(290.29999999999995, 81.7%, 44.6%)" stroke-width="1.5"></path><path d="M999.95 504.36L1157.47 523.13" stroke="hsl(290.29999999999995, 81.7%, 44.6%)" stroke-width="1.5"></path><path d="M999.95 504.36L826.72 498.67" stroke="hsl(290.29999999999995, 81.7%, 44.6%)" stroke-width="1.5"></path><path d="M958.25 709.01L958.25 709.01" stroke="hsl(290.29999999999995, 81.7%, 44.6%)" stroke-width="1.5"></path><path d="M958.25 709.01L1105.16 664.59" stroke="hsl(290.29999999999995, 81.7%, 44.6%)" stroke-width="1.5"></path><path d="M958.25 709.01L999.95 504.36" stroke="hsl(290.29999999999995, 81.7%, 44.6%)" stroke-width="1.5"></path><path d="M1155.89 83.06L1155.89 83.06" stroke="hsl(290.29999999999995, 81.7%, 44.6%)" stroke-width="1.5"></path><path d="M1155.89 83.06L1258.1 75.59" stroke="hsl(290.29999999999995, 81.7%, 44.6%)" stroke-width="1.5"></path><path d="M1155.89 83.06L1104.95 204.68" stroke="hsl(290.29999999999995, 81.7%, 44.6%)" stroke-width="1.5"></path><path d="M1155.89 83.06L1270.29 249.82" stroke="hsl(290.29999999999995, 81.7%, 44.6%)" stroke-width="1.5"></path><path d="M1155.89 83.06L1431.1 42.78" stroke="hsl(290.29999999999995, 81.7%, 44.6%)" stroke-width="1.5"></path><path d="M1104.95 204.68L1104.95 204.68" stroke="hsl(290.29999999999995, 81.7%, 44.6%)" stroke-width="1.5"></path><path d="M1104.95 204.68L1133.39 366.83" stroke="hsl(290.29999999999995, 81.7%, 44.6%)" stroke-width="1.5"></path><path d="M1133.39 366.83L1133.39 366.83" stroke="hsl(290.29999999999995, 81.7%, 44.6%)" stroke-width="1.5"></path><path d="M1133.39 366.83L1157.47 523.13" stroke="hsl(290.29999999999995, 81.7%, 44.6%)" stroke-width="1.5"></path><path d="M1133.39 366.83L999.95 504.36" stroke="hsl(290.29999999999995, 81.7%, 44.6%)" stroke-width="1.5"></path><path d="M1157.47 523.13L1157.47 523.13" stroke="hsl(290.29999999999995, 81.7%, 44.6%)" stroke-width="1.5"></path><path d="M1157.47 523.13L1285.34 549.07" stroke="hsl(290.29999999999995, 81.7%, 44.6%)" stroke-width="1.5"></path><path d="M1105.16 664.59L1105.16 664.59" stroke="hsl(290.29999999999995, 81.7%, 44.6%)" stroke-width="1.5"></path><path d="M1105.16 664.59L1157.47 523.13" stroke="hsl(290.29999999999995, 81.7%, 44.6%)" stroke-width="1.5"></path><path d="M1105.16 664.59L999.95 504.36" stroke="hsl(290.29999999999995, 81.7%, 44.6%)" stroke-width="1.5"></path><path d="M1105.16 664.59L1285.34 549.07" stroke="hsl(290.29999999999995, 81.7%, 44.6%)" stroke-width="1.5"></path><path d="M1105.16 664.59L838.04 701.2" stroke="hsl(290.29999999999995, 81.7%, 44.6%)" stroke-width="1.5"></path><path d="M1105.16 664.59L1133.39 366.83" stroke="hsl(290.29999999999995, 81.7%, 44.6%)" stroke-width="1.5"></path><path d="M1258.1 75.59L1258.1 75.59" stroke="hsl(290.29999999999995, 81.7%, 44.6%)" stroke-width="1.5"></path><path d="M1258.1 75.59L1431.1 42.78" stroke="hsl(290.29999999999995, 81.7%, 44.6%)" stroke-width="1.5"></path><path d="M1258.1 75.59L1104.95 204.68" stroke="hsl(290.29999999999995, 81.7%, 44.6%)" stroke-width="1.5"></path><path d="M1285.34 549.07L1285.34 549.07" stroke="hsl(290.29999999999995, 81.7%, 44.6%)" stroke-width="1.5"></path><path d="M1285.34 549.07L1454.65 539.7" stroke="hsl(290.29999999999995, 81.7%, 44.6%)" stroke-width="1.5"></path><path d="M1285.34 549.07L1438.93 705.01" stroke="hsl(290.29999999999995, 81.7%, 44.6%)" stroke-width="1.5"></path><path d="M1431.1 42.78L1431.1 42.78" stroke="hsl(290.29999999999995, 81.7%, 44.6%)" stroke-width="1.5"></path><path d="M1431.1 42.78L1551.67 89.9" stroke="hsl(290.29999999999995, 81.7%, 44.6%)" stroke-width="1.5"></path><path d="M1431.1 42.78L1459.31 258.58" stroke="hsl(290.29999999999995, 81.7%, 44.6%)" stroke-width="1.5"></path><path d="M1431.1 42.78L1562.86 237.53" stroke="hsl(290.29999999999995, 81.7%, 44.6%)" stroke-width="1.5"></path><path d="M1459.31 258.58L1459.31 258.58" stroke="hsl(290.29999999999995, 81.7%, 44.6%)" stroke-width="1.5"></path><path d="M1459.31 258.58L1409.31 349.59" stroke="hsl(290.29999999999995, 81.7%, 44.6%)" stroke-width="1.5"></path><path d="M1459.31 258.58L1562.86 237.53" stroke="hsl(290.29999999999995, 81.7%, 44.6%)" stroke-width="1.5"></path><path d="M1459.31 258.58L1569.84 387.53" stroke="hsl(290.29999999999995, 81.7%, 44.6%)" stroke-width="1.5"></path><path d="M1409.31 349.59L1409.31 349.59" stroke="hsl(290.29999999999995, 81.7%, 44.6%)" stroke-width="1.5"></path><path d="M1409.31 349.59L1569.84 387.53" stroke="hsl(290.29999999999995, 81.7%, 44.6%)" stroke-width="1.5"></path><path d="M1409.31 349.59L1562.86 237.53" stroke="hsl(290.29999999999995, 81.7%, 44.6%)" stroke-width="1.5"></path><path d="M1409.31 349.59L1454.65 539.7" stroke="hsl(290.29999999999995, 81.7%, 44.6%)" stroke-width="1.5"></path><path d="M1409.31 349.59L1285.34 549.07" stroke="hsl(290.29999999999995, 81.7%, 44.6%)" stroke-width="1.5"></path><path d="M1454.65 539.7L1454.65 539.7" stroke="hsl(290.29999999999995, 81.7%, 44.6%)" stroke-width="1.5"></path><path d="M1454.65 539.7L1602.07 519.19" stroke="hsl(290.29999999999995, 81.7%, 44.6%)" stroke-width="1.5"></path><path d="M1454.65 539.7L1438.93 705.01" stroke="hsl(290.29999999999995, 81.7%, 44.6%)" stroke-width="1.5"></path><path d="M1438.93 705.01L1438.93 705.01" stroke="hsl(290.29999999999995, 81.7%, 44.6%)" stroke-width="1.5"></path><path d="M1438.93 705.01L1575.21 709.61" stroke="hsl(290.29999999999995, 81.7%, 44.6%)" stroke-width="1.5"></path><path d="M1551.67 89.9L1551.67 89.9" stroke="hsl(290.29999999999995, 81.7%, 44.6%)" stroke-width="1.5"></path><path d="M1551.67 89.9L1562.86 237.53" stroke="hsl(290.29999999999995, 81.7%, 44.6%)" stroke-width="1.5"></path><path d="M1562.86 237.53L1562.86 237.53" stroke="hsl(290.29999999999995, 81.7%, 44.6%)" stroke-width="1.5"></path><path d="M1562.86 237.53L1569.84 387.53" stroke="hsl(290.29999999999995, 81.7%, 44.6%)" stroke-width="1.5"></path><path d="M1562.86 237.53L1602.07 519.19" stroke="hsl(290.29999999999995, 81.7%, 44.6%)" stroke-width="1.5"></path><path d="M1569.84 387.53L1569.84 387.53" stroke="hsl(290.29999999999995, 81.7%, 44.6%)" stroke-width="1.5"></path><path d="M1569.84 387.53L1602.07 519.19" stroke="hsl(290.29999999999995, 81.7%, 44.6%)" stroke-width="1.5"></path><path d="M1602.07 519.19L1602.07 519.19" stroke="hsl(290.29999999999995, 81.7%, 44.6%)" stroke-width="1.5"></path><path d="M1602.07 519.19L1575.21 709.61" stroke="hsl(290.29999999999995, 81.7%, 44.6%)" stroke-width="1.5"></path><path d="M1602.07 519.19L1438.93 705.01" stroke="hsl(290.29999999999995, 81.7%, 44.6%)" stroke-width="1.5"></path><path d="M1602.07 519.19L1409.31 349.59" stroke="hsl(290.29999999999995, 81.7%, 44.6%)" stroke-width="1.5"></path><path d="M1575.21 709.61L1575.21 709.61" stroke="hsl(290.29999999999995, 81.7%, 44.6%)" stroke-width="1.5"></path><path d="M1575.21 709.61L1454.65 539.7" stroke="hsl(290.29999999999995, 81.7%, 44.6%)" stroke-width="1.5"></path><path d="M1575.21 709.61L1569.84 387.53" stroke="hsl(290.29999999999995, 81.7%, 44.6%)" stroke-width="1.5"></path><path d="M1575.21 709.61L1285.34 549.07" stroke="hsl(290.29999999999995, 81.7%, 44.6%)" stroke-width="1.5"></path><circle r="25" cx="107.99" cy="699.05" fill="url(&quot;#SvgjsRadialGradient1007&quot;)"></circle><circle r="25" cx="258.69" cy="510.68" fill="url(&quot;#SvgjsRadialGradient1007&quot;)"></circle><circle r="25" cx="392.79" cy="493.65" fill="url(&quot;#SvgjsRadialGradient1007&quot;)"></circle><circle r="25" cx="1270.29" cy="249.82" fill="url(&quot;#SvgjsRadialGradient1007&quot;)"></circle><circle r="25" cx="1430.4" cy="-96.58" fill="url(&quot;#SvgjsRadialGradient1007&quot;)"></circle><circle r="5" cx="-64.23" cy="505.26" fill="#c488cf"></circle><circle r="5" cx="-95" cy="648.45" fill="#c488cf"></circle><circle r="5" cx="103.29" cy="490.34" fill="#c488cf"></circle><circle r="5" cx="214.52" cy="653.57" fill="#c488cf"></circle><circle r="5" cx="380.07" cy="673.25" fill="#c488cf"></circle><circle r="5" cx="488.33" cy="552.34" fill="#c488cf"></circle><circle r="5" cx="500.88" cy="710.51" fill="#c488cf"></circle><circle r="5" cx="691.84" cy="538.27" fill="#c488cf"></circle><circle r="5" cx="672.73" cy="680.34" fill="#c488cf"></circle><circle r="5" cx="821.49" cy="337.59" fill="#c488cf"></circle><circle r="5" cx="826.72" cy="498.67" fill="#c488cf"></circle><circle r="5" cx="838.04" cy="701.2" fill="#c488cf"></circle><circle r="5" cx="999.95" cy="504.36" fill="#c488cf"></circle><circle r="5" cx="958.25" cy="709.01" fill="#c488cf"></circle><circle r="5" cx="1155.89" cy="83.06" fill="#c488cf"></circle><circle r="5" cx="1104.95" cy="204.68" fill="#c488cf"></circle><circle r="5" cx="1133.39" cy="366.83" fill="#c488cf"></circle><circle r="5" cx="1157.47" cy="523.13" fill="#c488cf"></circle><circle r="5" cx="1105.16" cy="664.59" fill="#c488cf"></circle><circle r="5" cx="1258.1" cy="75.59" fill="#c488cf"></circle><circle r="5" cx="1285.34" cy="549.07" fill="#c488cf"></circle><circle r="5" cx="1431.1" cy="42.78" fill="#c488cf"></circle><circle r="5" cx="1459.31" cy="258.58" fill="#c488cf"></circle><circle r="5" cx="1409.31" cy="349.59" fill="#c488cf"></circle><circle r="5" cx="1454.65" cy="539.7" fill="#c488cf"></circle><circle r="5" cx="1438.93" cy="705.01" fill="#c488cf"></circle><circle r="5" cx="1551.67" cy="89.9" fill="#c488cf"></circle><circle r="5" cx="1562.86" cy="237.53" fill="#c488cf"></circle><circle r="5" cx="1569.84" cy="387.53" fill="#c488cf"></circle><circle r="5" cx="1602.07" cy="519.19" fill="#c488cf"></circle><circle r="5" cx="1575.21" cy="709.61" fill="#c488cf"></circle></g><defs><mask id="SvgjsMask1006"><rect width="1440" height="560" fill="#ffffff"></rect></mask><radialGradient id="SvgjsRadialGradient1007"><stop stop-color="#ffffff" offset="0.1"></stop><stop stop-color="rgba(136, 16, 159, 1)" offset="0.2"></stop><stop stop-color="rgba(136, 16, 159, 0)" offset="1"></stop></radialGradient></defs></svg>